<?xml version="1.0" encoding="utf-8"?>
<!-- Generator: Adobe Illustrator 26.3.1, SVG Export Plug-In . SVG Version: 6.00 Build 0)  -->
<svg version="1.1" id="레이어_1" xmlns="http://www.w3.org/2000/svg" xmlns:xlink="http://www.w3.org/1999/xlink" x="0px"
	 y="0px" viewBox="0 0 218 218" style="enable-background:new 0 0 218 218;" xml:space="preserve">
<style type="text/css">
	.st0{fill:#FFFFFF;}
	.st1{fill:#EAECF6;}
	.st2{fill:#F4A617;}
</style>
<g>
	<g>
		<path class="st0" d="M69.826,188.571L60.34,183.6l2.182-4.22l14.935,7.827L65.69,209.965l-5.449-2.856L69.826,188.571z"/>
		<path class="st0" d="M37.853,192.237l8.176-16.842l-16.369,8.921l-5.834-5.638l17.651-18.506l4.444,4.296l-4.121,4.321
			l-8.866,8.431l17.002-8.872l2.93,2.831l-8.114,17.489l8.019-9.274l4.121-4.321l4.432,4.283l-17.65,18.506L37.853,192.237z"/>
		<path class="st0" d="M23.24,143.969c1.598-0.778,3.203-1.107,4.816-0.984c1.611,0.122,3.122,0.705,4.533,1.745
			c1.409,1.041,2.598,2.46,3.565,4.257c1.597,2.964,1.894,5.822,0.893,8.572c-1,2.751-3.25,5.081-6.748,6.989l-1.109,0.605
			c-2.194,1.197-4.322,1.861-6.383,1.99c-2.061,0.129-3.93-0.284-5.606-1.24c-1.676-0.956-3.025-2.385-4.048-4.285
			c-1.474-2.737-1.943-5.326-1.407-7.771c0.536-2.443,1.999-4.465,4.39-6.063l2.919,5.422c-1.342,0.786-2.135,1.666-2.38,2.641
			c-0.244,0.975-0.009,2.13,0.709,3.461c0.728,1.353,1.765,2.07,3.11,2.152c1.345,0.081,3.128-0.464,5.349-1.637l1.586-0.865
			c2.39-1.304,3.935-2.538,4.636-3.702c0.701-1.164,0.653-2.484-0.143-3.961c-0.672-1.25-1.478-2.045-2.419-2.387
			c-0.941-0.342-2.058-0.187-3.353,0.466L23.24,143.969z"/>
		<path class="st0" d="M19.428,118.213c-0.889,0.127-1.537,0.543-1.946,1.247c-0.407,0.705-0.764,1.892-1.073,3.561
			c-0.307,1.669-0.638,3.044-0.994,4.127c-1.144,3.52-3.119,5.48-5.927,5.88c-1.398,0.199-2.69-0.035-3.873-0.703
			c-1.183-0.668-2.179-1.709-2.984-3.126c-0.806-1.416-1.341-3.06-1.603-4.933c-0.257-1.826-0.162-3.508,0.281-5.049
			c0.443-1.54,1.207-2.796,2.29-3.769c1.083-0.973,2.393-1.569,3.929-1.787l0.858,6.106c-1.029,0.146-1.78,0.578-2.258,1.292
			c-0.476,0.714-0.64,1.612-0.488,2.694c0.155,1.093,0.515,1.923,1.084,2.488c0.568,0.565,1.222,0.795,1.96,0.691
			c0.649-0.092,1.184-0.525,1.612-1.298s0.799-2.077,1.113-3.913c0.313-1.835,0.715-3.365,1.203-4.585
			c1.185-2.969,3.159-4.649,5.92-5.042c2.207-0.315,4.058,0.277,5.552,1.772c1.496,1.496,2.448,3.703,2.858,6.622
			c0.289,2.059,0.184,3.976-0.316,5.749c-0.5,1.773-1.328,3.173-2.486,4.198c-1.158,1.025-2.569,1.655-4.233,1.893l-0.863-6.141
			c1.353-0.193,2.3-0.686,2.841-1.482c0.543-0.795,0.703-1.983,0.48-3.565c-0.142-1.012-0.472-1.781-0.987-2.306
			C20.865,118.308,20.215,118.101,19.428,118.213z"/>
		<path class="st0" d="M16.887,99.692l2.458,2.839l6.676,0.777l-0.706,6.144L0,106.508l0.705-6.144l11.163,1.298l-2.972-2.509
			l-7.315-6.422l0.872-7.596l10.208,9.915l15.107-6.97l-0.835,7.282L16.887,99.692z"/>
		<path class="st0" d="M11.652,59.949l15.516,6.165c1.758,0.699,3.133,1.68,4.123,2.946c0.992,1.265,1.546,2.736,1.667,4.413
			c0.121,1.677-0.196,3.477-0.951,5.4c-1.14,2.907-2.786,4.898-4.939,5.974c-2.154,1.077-4.539,1.114-7.156,0.112l-15.63-6.211
			l2.268-5.785l15.744,6.256c2.621,0.965,4.392,0.267,5.318-2.093c0.467-1.19,0.495-2.222,0.084-3.092
			c-0.411-0.871-1.351-1.597-2.816-2.179L9.396,65.702L11.652,59.949z"/>
		<path class="st0" d="M36.459,59.536l6.193-8.778l3.853,2.756l-9.75,13.819L15.977,52.476l3.557-5.042L36.459,59.536z"/>
		<path class="st0" d="M48.864,44.947l7.937-7.216l3.167,3.53L47.472,52.623L30.39,33.584l4.56-4.146L48.864,44.947z"/>
		<path class="st0" d="M66.043,22.177c-1.009-0.648-1.864-1.309-2.564-1.985c-0.699-0.674-1.23-1.452-1.59-2.332
			c-0.784-1.911-0.802-3.711-0.055-5.4c0.747-1.689,2.112-2.946,4.098-3.77c1.779-0.739,3.476-0.805,5.088-0.198
			c1.612,0.607,2.75,1.72,3.413,3.338c0.828,2.02,0.457,4.271-1.112,6.753l-0.877,1.374l5.34,2.681
			c0.103-1.441-0.136-2.873-0.719-4.295l4.578-1.902c1.313,3.203,1.632,6.076,0.957,8.618l5.295,2.661l-6.083,2.527l-1.614-0.797
			c-0.684,0.919-1.444,1.705-2.281,2.358c-0.836,0.652-1.849,1.225-3.036,1.718c-2.329,0.968-4.448,1.127-6.356,0.477
			c-1.908-0.65-3.272-1.979-4.096-3.989c-0.449-1.096-0.58-2.205-0.389-3.327c0.191-1.121,0.847-2.607,1.97-4.459L66.043,22.177z
			 M66.571,15.84c0.31,0.76,1.099,1.512,2.364,2.258l0.804-1.134c0.362-0.533,0.585-1.019,0.67-1.461
			c0.084-0.441,0.017-0.928-0.201-1.46c-0.205-0.499-0.555-0.862-1.051-1.089c-0.497-0.225-0.999-0.233-1.506-0.022
			c-0.604,0.25-1,0.641-1.186,1.169C66.277,14.63,66.313,15.209,66.571,15.84z M73.501,29.143c0.949-0.393,1.764-0.993,2.445-1.796
			l-6.229-3.092l-0.105,0.158c-0.303,1.015-0.26,2.001,0.132,2.957c0.325,0.792,0.849,1.363,1.572,1.71
			C72.038,29.427,72.767,29.449,73.501,29.143z"/>
		<path class="st0" d="M118.393,25.653l-6.109,0.086l-0.147-10.712l-9.049,0.126l0.148,10.712l-6.144,0.086L96.74,0.298l6.143-0.086
			l0.141,10.183l9.048-0.126l-0.14-10.184L118.039,0L118.393,25.653z"/>
		<path class="st0" d="M136.181,25.274l-8.12-2.243l-2.678,4.231l-6.329-1.749L134.81,3.262l5.571,1.538l2.339,27.25l-6.364-1.758
			L136.181,25.274z M130.735,18.818l5.283,1.46l-0.311-9.313L130.735,18.818z"/>
		<path class="st0" d="M161.122,43.472l-5.226-3.185l5.511-9.165l-7.742-4.717l-5.511,9.166l-5.256-3.203l13.196-21.947l5.256,3.203
			l-5.238,8.713l7.741,4.717l5.238-8.713l5.226,3.185L161.122,43.472z"/>
		<path class="st0" d="M176.408,52.631l-5.703-6.235l-4.497,2.158l-4.447-4.861l25.078-10.457l3.913,4.277l-12.368,24.352
			l-4.471-4.887L176.408,52.631z M175.19,44.251l3.711,4.057l4.641-8.062L175.19,44.251z"/>
		<path class="st0" d="M190.317,89.472l-2.192-5.74l11.56-14.215l-14.802,5.728l-2.203-5.773l23.787-9.206l2.205,5.773
			l-11.568,14.199l14.802-5.729l2.198,5.756L190.317,89.472z"/>
		<path class="st0" d="M202.508,106.775l-1.146-9.906l-10.083,1.183l-0.711-6.144l25.313-2.969l1.972,17.047l-4.712,0.554
			l-1.26-10.905l-5.825,0.684l1.145,9.906L202.508,106.775z"/>
		<path class="st0" d="M210.625,133.07l0.958-7.64l-20.577-2.616l0.769-6.136l20.578,2.616l0.941-7.499l4.705,0.599l-2.668,21.275
			L210.625,133.07z"/>
	</g>
	<g>
		<g>
			<g>
				<path class="st0" d="M137.452,93.068c-3.102,4.571-7.797,5.747-13.182,5.565c-0.324,1.626-0.618,3.095-0.911,4.565
					c-0.275,0.076-5.909-14.358-5.688-14.564c3.874,3.12,6.917,1.332,9.818-1.332c2.657-2.439,5.419-4.064,8.661-0.733
					c2.149-2.46,1.471-4.47-0.27-6.382c-1.793-1.968-3.721-3.819-5.428-5.858c-2.882-3.444-5.885-4.532-9.991-2.818
					c-3.15,1.315-6.016,3.314-9.149,4.682c-0.597,0.261-1.344,0.394-2.089,0.397c-0.744-0.002-1.492-0.136-2.089-0.397
					c-3.133-1.369-5.999-3.367-9.149-4.682c-4.106-1.715-7.109-0.626-9.991,2.818c-1.707,2.04-3.635,3.89-5.428,5.858
					c-1.742,1.912-2.419,3.921-0.27,6.382c3.242-3.33,6.004-1.705,8.661,0.733c2.902,2.663,5.944,4.452,9.818,1.332
					c0.221,0.206-5.413,14.64-5.688,14.564c-0.293-1.47-0.586-2.939-0.911-4.565c-5.385,0.182-10.081-0.994-13.182-5.565
					c-5.264,2.396-6.265,6.4-2.924,10.652c1.229,1.565,2.309,3.269,3.291,5.004c0.917,1.62,1.614,3.366,2.507,5.268
					c2.266-0.846,4.406-1.644,7.331-2.736c-3.79,5.104-7.914,9.277-6.648,15.828c1.102,5.703,3.158,10.826,6.62,15.408
					c3.922-2.2,7.713-4.206,11.385-6.413c5.421-3.258,5.58-7.503,0.538-11.376c-1.936-1.487-4.017-2.818-5.772-4.496
					c-1.113-1.064-1.918-3.533-2.501-4.457c3.578,2.439,5.11,0.321,6.986,0.3c1.397-0.015,2.033,0.097,3.284,0.655
					c1.414,0.631,2.771,0.889,4.133,0.867c1.363,0.022,2.719-0.236,4.133-0.867c1.25-0.558,1.886-0.671,3.284-0.655
					c1.876,0.021,3.408,2.139,6.986-0.3c-0.583,0.924-1.388,3.393-2.501,4.457c-1.755,1.678-3.836,3.009-5.772,4.496
					c-5.042,3.873-4.883,8.118,0.538,11.376c3.672,2.207,7.462,4.213,11.385,6.413c3.461-4.583,5.517-9.705,6.62-15.408
					c1.266-6.551-2.858-10.724-6.648-15.828c2.926,1.092,5.065,1.89,7.331,2.736c0.893-1.901,1.59-3.648,2.507-5.268
					c0.982-1.736,2.061-3.44,3.291-5.004C143.717,99.467,142.717,95.463,137.452,93.068z"/>
				<path class="st0" d="M109.222,140.213c-4.338-0.202-8.443,1.843-12.149,6.118c-3.083,3.557-2.634,6.85,1.958,12.512
					c0.49-0.843,0.84-1.446,1.259-2.167c3.034,2.671,5.938,5.229,8.912,7.848c0.007-0.006,0.013-0.012,0.02-0.017
					c0.007,0.006,0.013,0.012,0.02,0.017c2.974-2.619,5.879-5.176,8.912-7.848c0.419,0.721,0.769,1.323,1.259,2.167
					c4.592-5.662,5.041-8.955,1.958-12.512C117.666,142.056,113.56,140.011,109.222,140.213z"/>
				<path class="st0" d="M130.167,90.824c-1.376,0.887-2.888,2.167-5.518,2.847c0.141,0.373,1.428,1.154,2.101,1.383
					c1.715-0.696,3.501-1.265,5.102-2.167c0.477-0.269,0.435-1.471,0.631-2.246C131.7,90.685,130.742,90.454,130.167,90.824z"/>
				<path class="st0" d="M91.695,95.055c0.674-0.23,1.96-1.01,2.101-1.383c-2.63-0.681-4.142-1.961-5.518-2.847
					c-0.575-0.371-1.533-0.14-2.317-0.182c0.196,0.775,0.154,1.977,0.631,2.246C88.193,93.79,89.979,94.359,91.695,95.055z"/>
			</g>
		</g>
		<path class="st1" d="M125.688,123.67c-2.408-1.697-2.054-5.585-2.062-7.921c-0.617,1.083-1.536,3.534-2.501,4.457
			c-1.755,1.678-3.836,3.009-5.772,4.496c-5.042,3.873-4.883,8.118,0.538,11.376c3.672,2.207,7.462,4.213,11.385,6.413
			c3.461-4.582,5.517-9.705,6.62-15.408c0.265-1.371,0.291-2.637,0.136-3.831C131.144,123.496,128.15,125.901,125.688,123.67z"/>
		<path class="st1" d="M133.218,108.165c-2.396,1.378-5.476,1.723-8.215,0.345c0.812,0.981,1.705,1.962,2.671,2.906
			c2.706,1.01,4.752,1.773,6.904,2.576c0.893-1.901,1.59-3.648,2.507-5.268c0.982-1.736,2.061-3.44,3.291-5.004
			c1.095-1.394,1.72-2.76,1.885-4.052C138.733,101.82,136.715,106.269,133.218,108.165z"/>
		<path class="st0" d="M109.222,140.213c-4.338-0.202-8.443,1.843-12.149,6.118c-3.083,3.557-2.634,6.85,1.958,12.512
			c0.49-0.843,0.84-1.446,1.259-2.167c3.034,2.671,5.938,5.229,8.912,7.848c0.007-0.006,0.013-0.012,0.02-0.017
			c0.007,0.006,0.013,0.012,0.02,0.017c2.974-2.619,5.879-5.176,8.912-7.848c0.419,0.721,0.769,1.323,1.259,2.167
			c4.592-5.662,5.041-8.955,1.958-12.512C117.666,142.056,113.56,140.011,109.222,140.213z"/>
		<path class="st2" d="M130.167,90.824c-1.376,0.887-2.888,2.167-5.518,2.847c0.141,0.373,1.428,1.154,2.101,1.383
			c1.715-0.696,3.501-1.265,5.102-2.167c0.477-0.269,0.435-1.471,0.631-2.246C131.7,90.685,130.742,90.454,130.167,90.824z"/>
		<path class="st2" d="M91.695,95.055c0.674-0.23,1.96-1.01,2.101-1.383c-2.63-0.681-4.142-1.961-5.518-2.847
			c-0.575-0.371-1.533-0.14-2.317-0.182c0.196,0.775,0.154,1.977,0.631,2.246C88.193,93.79,89.979,94.359,91.695,95.055z"/>
		<g>
			<path class="st1" d="M119.414,155.483c-0.49-0.843-0.84-1.446-1.259-2.167c-3.034,2.671-5.938,5.229-8.912,7.848
				c-0.007-0.006-0.013-0.012-0.02-0.017c-0.007,0.006-0.013,0.012-0.02,0.017c-2.974-2.619-5.879-5.176-8.912-7.848
				c-0.419,0.721-0.769,1.323-1.259,2.167c-1.987-2.451-3.197-4.457-3.682-6.233c-0.8,2.621,0.348,5.482,3.682,9.593
				c0.49-0.843,0.84-1.446,1.259-2.167c3.034,2.671,5.938,5.229,8.912,7.848c0.007-0.006,0.013-0.012,0.02-0.017
				c0.007,0.006,0.013,0.012,0.02,0.017c2.974-2.619,5.879-5.176,8.912-7.848c0.419,0.721,0.769,1.323,1.259,2.167
				c3.334-4.111,4.482-6.972,3.682-9.593C122.611,151.026,121.401,153.033,119.414,155.483z"/>
		</g>
		<path class="st1" d="M92.71,123.67c2.408-1.697,2.054-5.585,2.062-7.921c0.617,1.083,1.536,3.534,2.501,4.457
			c1.755,1.678,3.836,3.009,5.772,4.496c5.042,3.873,4.883,8.118-0.538,11.376c-3.672,2.207-7.462,4.213-11.385,6.413
			c-3.461-4.582-5.517-9.705-6.62-15.408c-0.265-1.371-0.291-2.637-0.136-3.831C87.254,123.496,90.248,125.901,92.71,123.67z"/>
		<path class="st1" d="M85.18,108.165c2.396,1.378,5.476,1.723,8.215,0.345c-0.812,0.981-1.705,1.962-2.671,2.906
			c-2.706,1.01-4.752,1.773-6.904,2.576c-0.893-1.901-1.59-3.648-2.507-5.268c-0.982-1.736-2.061-3.44-3.291-5.004
			c-1.095-1.394-1.72-2.76-1.885-4.052C79.664,101.82,81.683,106.269,85.18,108.165z"/>
		<path class="st1" d="M87.795,78.093c2.882-3.444,5.885-4.532,9.991-2.818c3.15,1.315,6.016,3.314,9.149,4.682
			c0.597,0.261,1.344,0.394,2.089,0.397c0.744-0.002,1.492-0.136,2.089-0.397c3.133-1.369,5.999-3.367,9.149-4.682
			c4.106-1.715,7.109-0.626,9.991,2.818c1.707,2.04,3.635,3.89,5.428,5.858c0.44,0.483,0.812,0.973,1.088,1.475
			c1.088-1.956,0.376-3.632-1.088-5.24c-1.793-1.968-3.721-3.819-5.428-5.858c-2.882-3.444-5.885-4.532-9.991-2.818
			c-3.15,1.315-6.016,3.314-9.149,4.682c-0.597,0.261-1.344,0.394-2.089,0.397c-0.744-0.002-1.492-0.136-2.089-0.397
			c-3.133-1.369-5.999-3.367-9.149-4.682c-4.106-1.715-7.109-0.626-9.991,2.818c-1.707,2.04-3.635,3.89-5.428,5.858
			c-1.464,1.607-2.176,3.284-1.088,5.24c0.276-0.502,0.648-0.991,1.088-1.475C84.16,81.983,86.089,80.133,87.795,78.093z"/>
	</g>
	<g>
		<path class="st0" d="M194.223,145.905l0.132-0.317l14.071,5.98l-0.132,0.317L194.223,145.905z"/>
		<path class="st0" d="M186.68,160.21l0.185-0.289l12.839,8.33l-0.185,0.288L186.68,160.21z"/>
		<path class="st0" d="M176.795,172.988l0.232-0.252l11.209,10.442l-0.232,0.253L176.795,172.988z"/>
		<path class="st0" d="M164.868,183.829l0.271-0.207l9.233,12.248l-0.272,0.207L164.868,183.829z"/>
		<path class="st0" d="M151.257,192.416l0.305-0.157l6.99,13.671l-0.303,0.157L151.257,192.416z"/>
		<path class="st0" d="M136.363,198.539l0.325-0.103l4.569,14.671l-0.326,0.102L136.363,198.539z"/>
		<path class="st0" d="M120.679,201.981l0.338-0.045l1.973,15.247l-0.339,0.044L120.679,201.981z"/>
		<path class="st0" d="M104.62,202.623l0.341,0.017L104.27,218l-0.341-0.016L104.62,202.623z"/>
		<path class="st0" d="M88.681,200.452l0.333,0.075l-3.321,15.007l-0.333-0.074L88.681,200.452z"/>
	</g>
</g>
</svg>
