<?xml version="1.0" encoding="utf-8"?>
<!-- Generator: Adobe Illustrator 26.3.1, SVG Export Plug-In . SVG Version: 6.00 Build 0)  -->
<svg version="1.1" id="레이어_1" xmlns="http://www.w3.org/2000/svg" xmlns:xlink="http://www.w3.org/1999/xlink" x="0px"
	 y="0px" viewBox="0 0 218.095 217.471" style="enable-background:new 0 0 218.095 217.471;" xml:space="preserve">
<style type="text/css">
	.st0{fill:#FFFFFF;}
	.st1{fill:#EBEDF7;}
	.st2{fill:#F5A717;}
</style>
<g>
	<path class="st0" d="M42.968,167.787l-6.995-8.149l3.602-3.091l11.014,12.831l-19.419,16.671l-4.02-4.682L42.968,167.787z"/>
	<path class="st0" d="M11.884,159.311l13.831-12.586L7.15,148.932l-3.369-7.389l23.285-10.619l2.568,5.629l-5.438,2.48l-11.38,4.533
		l19.137-1.927l1.692,3.71l-14.011,13.21l10.9-5.628l5.438-2.48l2.56,5.614l-23.287,10.62L11.884,159.311z"/>
	<path class="st0" d="M16.041,109.086c1.778-0.127,3.396,0.166,4.855,0.878s2.655,1.813,3.585,3.302
		c0.932,1.489,1.517,3.246,1.755,5.271c0.396,3.34-0.382,6.099-2.332,8.276c-1.948,2.177-4.908,3.5-8.877,3.969l-1.257,0.148
		c-2.49,0.293-4.721,0.119-6.691-0.528c-1.971-0.647-3.561-1.725-4.771-3.233c-1.21-1.51-1.941-3.334-2.195-5.476
		c-0.363-3.084,0.155-5.659,1.557-7.725c1.402-2.065,3.515-3.395,6.336-3.987l0.721,6.11c-1.542,0.229-2.607,0.75-3.196,1.563
		c-0.588,0.813-0.794,1.97-0.616,3.471c0.181,1.524,0.882,2.575,2.107,3.149c1.224,0.575,3.089,0.732,5.596,0.472l1.797-0.212
		c2.712-0.32,4.61-0.89,5.693-1.708c1.084-0.818,1.527-2.06,1.33-3.724c-0.166-1.408-0.625-2.445-1.376-3.112
		c-0.751-0.666-1.852-0.938-3.301-0.813L16.041,109.086z"/>
	<path class="st0" d="M22.072,83.85c-0.876-0.215-1.635-0.073-2.277,0.427c-0.642,0.5-1.415,1.465-2.322,2.896
		c-0.905,1.431-1.726,2.582-2.458,3.451c-2.372,2.832-4.941,3.908-7.707,3.229c-1.378-0.338-2.494-1.038-3.35-2.1
		c-0.855-1.061-1.396-2.396-1.621-4.009c-0.226-1.612-0.114-3.334,0.336-5.167c0.439-1.786,1.151-3.31,2.137-4.57
		c0.985-1.26,2.164-2.139,3.534-2.634c1.371-0.496,2.813-0.558,4.327-0.187l-1.468,5.975c-1.013-0.249-1.874-0.131-2.585,0.352
		c-0.71,0.483-1.195,1.254-1.455,2.312c-0.262,1.07-0.233,1.973,0.086,2.709c0.32,0.736,0.845,1.194,1.572,1.373
		c0.638,0.156,1.299-0.043,1.985-0.599c0.685-0.555,1.515-1.625,2.488-3.208c0.975-1.583,1.916-2.849,2.823-3.795
		c2.209-2.307,4.672-3.125,7.393-2.457c2.173,0.534,3.68,1.772,4.518,3.715c0.838,1.944,0.905,4.344,0.204,7.2
		c-0.495,2.015-1.304,3.75-2.428,5.205c-1.124,1.456-2.416,2.441-3.877,2.958c-1.459,0.516-3.009,0.573-4.648,0.17l1.477-6.009
		c1.331,0.328,2.397,0.225,3.198-0.31c0.801-0.533,1.391-1.573,1.771-3.121c0.243-0.99,0.223-1.825-0.063-2.504
		C23.376,84.475,22.847,84.04,22.072,83.85z"/>
	<path class="st0" d="M28.091,68.082l0.721,2.249l4.814,2.479l-2.713,5.266L6.893,65.708l2.712-5.267l12.753,6.566l-0.43-0.893
		l-2.896-6.513l3.252-6.313l3.904,9.504l13.206-1.188l-3.106,6.033L28.091,68.082z"/>
	<path class="st0" d="M45.167,51.883c0.424,1.993-0.051,3.806-1.422,5.439c-1.34,1.598-2.82,2.417-4.438,2.459
		c-1.618,0.042-3.298-0.669-5.04-2.13l-9.438-7.922l3.809-4.538l9.466,7.945c1.248,1.047,2.38,0.964,3.397-0.248
		c0.873-1.041,1.122-2.094,0.746-3.158l-10.219-8.578l3.831-4.564l14.568,12.228l-3.571,4.254L45.167,51.883z"/>
	<path class="st0" d="M57.062,43.528l-4.531,3.841l-17.46-20.595l4.533-3.843L57.062,43.528z"/>
	<path class="st0" d="M64.605,38.235l-4.931,3.316L44.608,19.146l4.93-3.315L64.605,38.235z"/>
	<path class="st0" d="M73.572,18.546c-0.954-0.732-1.751-1.465-2.392-2.198c-0.641-0.732-1.104-1.552-1.387-2.457
		c-0.616-1.968-0.477-3.759,0.418-5.372c0.896-1.612,2.371-2.741,4.43-3.385c1.846-0.578,3.548-0.494,5.107,0.252
		c1.56,0.746,2.6,1.953,3.121,3.619c0.652,2.08,0.084,4.284-1.705,6.613l-0.997,1.288l5.108,3.134
		c0.229-1.421,0.115-2.866-0.344-4.332l4.748-1.486c1.032,3.299,1.1,6.182,0.202,8.649l5.063,3.112l-6.308,1.974l-1.545-0.934
		c-0.765,0.853-1.595,1.566-2.489,2.142c-0.894,0.574-1.957,1.055-3.187,1.44c-2.416,0.756-4.549,0.727-6.401-0.087
		c-1.85-0.814-3.1-2.255-3.748-4.326c-0.354-1.129-0.385-2.242-0.097-3.34c0.288-1.097,1.075-2.516,2.36-4.257L73.572,18.546z
		 M74.654,12.295c0.245,0.783,0.968,1.601,2.167,2.453l0.904-1.056c0.408-0.497,0.676-0.96,0.798-1.392
		c0.123-0.431,0.099-0.921-0.072-1.469c-0.162-0.514-0.481-0.905-0.957-1.174c-0.478-0.268-0.979-0.32-1.505-0.155
		c-0.626,0.196-1.056,0.549-1.289,1.057C74.467,11.068,74.451,11.647,74.654,12.295z M80.422,26.128
		c0.983-0.308,1.852-0.832,2.603-1.57l-5.961-3.623l-0.118,0.147c-0.393,0.982-0.435,1.967-0.127,2.95
		c0.256,0.817,0.729,1.429,1.423,1.838C78.934,26.281,79.661,26.367,80.422,26.128z"/>
	<path class="st0" d="M125.61,26.662l-6.118-0.459l0.8-10.658l-9.062-0.68l-0.801,10.657l-6.152-0.461l1.915-25.522L112.346,0
		l-0.76,10.131l9.062,0.681l0.761-10.132l6.117,0.46L125.61,26.662z"/>
	<path class="st0" d="M137.828,30.818c-0.077-0.434-0.075-1.032,0.007-1.796c-1.468,0.956-3.13,1.125-4.987,0.505
		c-1.7-0.567-2.975-1.563-3.82-2.988c-0.847-1.425-1.011-2.916-0.492-4.472c0.652-1.957,1.868-3.194,3.647-3.713
		s4.047-0.318,6.804,0.601l1.734,0.579l0.319-0.956c0.555-1.665,0.115-2.736-1.319-3.213c-1.334-0.446-2.222-0.009-2.66,1.31
		l-5.62-1.874c0.582-1.743,1.796-2.912,3.643-3.504c1.848-0.594,3.922-0.508,6.223,0.26s3.932,1.935,4.891,3.502
		c0.96,1.568,1.131,3.336,0.512,5.303l-2.664,7.988c-0.53,1.665-0.698,3.017-0.501,4.058l-0.095,0.283L137.828,30.818z
		 M135.534,25.976c0.699,0.234,1.33,0.277,1.893,0.131c0.561-0.146,1.004-0.375,1.331-0.687l0.962-2.885l-1.634-0.545
		c-1.956-0.652-3.228-0.1-3.813,1.656c-0.17,0.512-0.137,0.982,0.103,1.415C134.613,25.493,135,25.798,135.534,25.976z"/>
	<path class="st0" d="M158.227,21.641c1.906-0.714,3.703-0.565,5.391,0.449c1.798,1.08,2.835,2.427,3.109,4.041
		c0.273,1.614-0.203,3.466-1.432,5.558l-6.183,10.292l-5.093-3.06l6.109-10.171c0.52-0.864,0.725-1.604,0.617-2.223
		c-0.107-0.618-0.582-1.18-1.426-1.687c-1.046-0.628-1.982-0.74-2.813-0.336l-7.023,11.693l-5.078-3.05l13.903-23.145l5.078,3.05
		L158.227,21.641z"/>
	<path class="st0" d="M168.413,50.631c0.113-0.425,0.369-0.967,0.768-1.622c-1.734,0.241-3.311-0.314-4.728-1.664
		c-1.298-1.237-2.026-2.68-2.187-4.331c-0.16-1.649,0.325-3.068,1.457-4.256c1.423-1.493,3.05-2.097,4.881-1.809
		c1.83,0.287,3.797,1.433,5.901,3.438l1.322,1.261l0.695-0.729c1.21-1.271,1.269-2.428,0.175-3.47
		c-1.019-0.97-2.008-0.951-2.967,0.055l-4.288-4.087c1.269-1.33,2.864-1.871,4.788-1.623c1.923,0.249,3.764,1.21,5.52,2.883
		c1.757,1.674,2.735,3.424,2.938,5.25c0.201,1.827-0.396,3.5-1.794,5.016l-5.809,6.097c-1.188,1.28-1.914,2.433-2.179,3.459
		l-0.206,0.216L168.413,50.631z M168.394,45.273c0.534,0.509,1.087,0.817,1.657,0.923c0.57,0.107,1.069,0.088,1.497-0.054
		l2.098-2.202l-1.247-1.188c-1.493-1.424-2.879-1.464-4.156-0.124c-0.371,0.391-0.541,0.832-0.509,1.324
		C167.768,44.445,167.987,44.885,168.394,45.273z"/>
	<path class="st0" d="M188.221,81.473l-2.728-5.496l10.231-15.206l-14.265,7.081l-2.743-5.526l22.925-11.38l2.742,5.527
		l-10.239,15.19l14.266-7.082l2.735,5.511L188.221,81.473z"/>
	<path class="st0" d="M202.067,97.495l-2.092-9.727l-9.967,2.145l-1.298-6.032l25.021-5.382l3.6,16.738l-4.657,1.002l-2.302-10.707
		l-5.757,1.238l2.092,9.727L202.067,97.495z"/>
	<path class="st0" d="M212.682,122.862l0.234-7.679l-20.82-0.634l0.188-6.167l20.819,0.634l0.23-7.538l4.761,0.146l-0.651,21.383
		L212.682,122.862z"/>
</g>
<g>
	<g>
		<g>
			<path class="st0" d="M137.412,92.742c-3.115,4.56-7.83,5.733-13.239,5.552c-0.326,1.622-0.62,3.088-0.915,4.554
				c-0.276,0.076-5.934-14.324-5.713-14.529c3.891,3.113,6.946,1.328,9.86-1.328c2.668-2.433,5.442-4.054,8.698-0.732
				c2.158-2.454,1.477-4.459-0.272-6.366c-1.801-1.964-3.737-3.809-5.451-5.844c-2.894-3.436-5.91-4.521-10.034-2.811
				c-3.164,1.312-6.042,3.306-9.188,4.671c-0.599,0.26-1.35,0.394-2.098,0.396c-0.748-0.002-1.499-0.136-2.098-0.396
				c-3.146-1.365-6.025-3.359-9.188-4.671c-4.124-1.71-7.14-0.625-10.034,2.811c-1.714,2.035-3.651,3.881-5.451,5.844
				c-1.749,1.907-2.429,3.912-0.272,6.366c3.256-3.322,6.03-1.701,8.698,0.732c2.914,2.657,5.969,4.441,9.86,1.328
				c0.222,0.206-5.436,14.605-5.713,14.529c-0.294-1.466-0.589-2.932-0.915-4.554c-5.409,0.182-10.124-0.991-13.239-5.552
				c-5.287,2.39-6.291,6.384-2.936,10.627c1.235,1.561,2.318,3.261,3.305,4.992c0.921,1.616,1.621,3.358,2.518,5.255
				c2.276-0.844,4.425-1.64,7.363-2.729c-3.806,5.092-7.948,9.255-6.676,15.79c1.107,5.69,3.172,10.8,6.648,15.371
				c3.939-2.195,7.746-4.196,11.434-6.398c5.444-3.25,5.604-7.485,0.541-11.349c-1.944-1.484-4.034-2.811-5.797-4.485
				c-1.118-1.062-1.926-3.525-2.512-4.447c3.594,2.434,5.132,0.32,7.016,0.299c1.403-0.015,2.042,0.097,3.298,0.654
				c1.421,0.63,2.783,0.887,4.151,0.865c1.368,0.022,2.73-0.235,4.151-0.865c1.256-0.557,1.895-0.669,3.298-0.654
				c1.884,0.021,3.422,2.134,7.016-0.299c-0.586,0.922-1.394,3.385-2.512,4.447c-1.762,1.674-3.852,3.002-5.797,4.485
				c-5.063,3.864-4.904,8.098,0.541,11.349c3.688,2.201,7.494,4.203,11.434,6.398c3.476-4.572,5.541-9.681,6.648-15.371
				c1.271-6.535-2.871-10.698-6.676-15.79c2.938,1.089,5.087,1.886,7.363,2.729c0.897-1.897,1.597-3.639,2.518-5.255
				c0.986-1.731,2.07-3.431,3.305-4.992C143.703,99.126,142.699,95.132,137.412,92.742z"/>
			<path class="st0" d="M109.061,139.774c-4.356-0.201-8.48,1.839-12.201,6.103c-3.096,3.548-2.646,6.834,1.966,12.482
				c0.492-0.841,0.844-1.443,1.264-2.161c3.047,2.665,5.964,5.216,8.951,7.829c0.007-0.006,0.013-0.012,0.02-0.017
				c0.007,0.006,0.013,0.012,0.02,0.017c2.987-2.612,5.904-5.164,8.951-7.829c0.42,0.719,0.772,1.32,1.264,2.161
				c4.611-5.649,5.062-8.934,1.966-12.482C117.541,141.613,113.417,139.573,109.061,139.774z"/>
			<path class="st0" d="M130.095,90.504c-1.382,0.885-2.9,2.161-5.541,2.841c0.142,0.372,1.434,1.151,2.11,1.38
				c1.723-0.695,3.516-1.262,5.124-2.162c0.479-0.268,0.437-1.468,0.634-2.241C131.635,90.365,130.673,90.134,130.095,90.504z"/>
			<path class="st0" d="M91.458,94.724c0.677-0.229,1.968-1.008,2.11-1.38c-2.641-0.679-4.159-1.956-5.541-2.841
				c-0.578-0.37-1.54-0.139-2.327-0.182c0.197,0.773,0.155,1.972,0.634,2.241C87.942,93.463,89.736,94.03,91.458,94.724z"/>
		</g>
	</g>
	<path class="st1" d="M125.597,123.271c-2.418-1.693-2.062-5.572-2.071-7.902c-0.62,1.081-1.542,3.526-2.512,4.447
		c-1.762,1.674-3.852,3.002-5.797,4.485c-5.063,3.864-4.904,8.098,0.541,11.349c3.688,2.201,7.494,4.203,11.434,6.398
		c3.476-4.571,5.541-9.681,6.648-15.371c0.266-1.368,0.293-2.631,0.137-3.821C131.076,123.097,128.07,125.497,125.597,123.271z"/>
	<path class="st1" d="M133.159,107.803c-2.406,1.375-5.5,1.719-8.25,0.344c0.816,0.979,1.712,1.957,2.683,2.899
		c2.717,1.007,4.772,1.769,6.934,2.57c0.897-1.897,1.597-3.639,2.518-5.255c0.986-1.731,2.07-3.431,3.305-4.992
		c1.099-1.39,1.728-2.753,1.893-4.042C138.698,101.473,136.672,105.911,133.159,107.803z"/>
	<path class="st0" d="M109.061,139.774c-4.356-0.201-8.48,1.839-12.201,6.103c-3.096,3.548-2.646,6.834,1.966,12.482
		c0.492-0.841,0.844-1.443,1.264-2.161c3.047,2.665,5.964,5.216,8.951,7.829c0.007-0.006,0.013-0.012,0.02-0.017
		c0.007,0.006,0.013,0.012,0.02,0.017c2.987-2.612,5.904-5.164,8.951-7.829c0.42,0.719,0.772,1.32,1.264,2.161
		c4.611-5.649,5.062-8.934,1.966-12.482C117.541,141.613,113.417,139.573,109.061,139.774z"/>
	<path class="st2" d="M130.095,90.504c-1.382,0.885-2.9,2.161-5.541,2.841c0.142,0.372,1.434,1.151,2.11,1.38
		c1.723-0.695,3.516-1.262,5.124-2.162c0.479-0.268,0.437-1.468,0.634-2.241C131.635,90.365,130.673,90.134,130.095,90.504z"/>
	<path class="st2" d="M91.458,94.724c0.677-0.229,1.968-1.008,2.11-1.38c-2.641-0.679-4.159-1.956-5.541-2.841
		c-0.578-0.37-1.54-0.139-2.327-0.182c0.197,0.773,0.155,1.972,0.634,2.241C87.942,93.463,89.736,94.03,91.458,94.724z"/>
	<g>
		<path class="st1" d="M119.296,155.008c-0.492-0.841-0.844-1.443-1.264-2.161c-3.047,2.665-5.964,5.216-8.951,7.829
			c-0.007-0.006-0.013-0.012-0.02-0.017c-0.007,0.006-0.013,0.012-0.02,0.017c-2.987-2.612-5.904-5.164-8.951-7.829
			c-0.42,0.719-0.772,1.32-1.264,2.161c-1.996-2.445-3.211-4.446-3.698-6.218c-0.803,2.614,0.35,5.469,3.698,9.57
			c0.492-0.841,0.844-1.443,1.264-2.161c3.047,2.665,5.964,5.216,8.951,7.829c0.007-0.006,0.013-0.012,0.02-0.017
			c0.007,0.006,0.013,0.012,0.02,0.017c2.987-2.612,5.904-5.164,8.951-7.829c0.42,0.719,0.772,1.32,1.264,2.161
			c3.348-4.101,4.501-6.956,3.698-9.57C122.507,150.561,121.292,152.563,119.296,155.008z"/>
	</g>
	<path class="st1" d="M92.478,123.271c2.418-1.693,2.062-5.572,2.071-7.902c0.62,1.081,1.542,3.526,2.512,4.447
		c1.762,1.674,3.852,3.002,5.797,4.485c5.063,3.864,4.904,8.098-0.541,11.349c-3.688,2.201-7.494,4.203-11.434,6.398
		c-3.476-4.571-5.541-9.681-6.648-15.371c-0.266-1.368-0.293-2.631-0.137-3.821C86.999,123.097,90.005,125.497,92.478,123.271z"/>
	<path class="st1" d="M84.916,107.803c2.406,1.375,5.5,1.719,8.25,0.344c-0.816,0.979-1.712,1.957-2.683,2.899
		c-2.717,1.007-4.772,1.769-6.934,2.57c-0.897-1.897-1.597-3.639-2.518-5.255c-0.986-1.731-2.07-3.431-3.305-4.992
		c-1.099-1.39-1.728-2.753-1.893-4.042C79.377,101.473,81.403,105.911,84.916,107.803z"/>
	<path class="st1" d="M87.542,77.803c2.894-3.436,5.91-4.521,10.034-2.811c3.164,1.312,6.042,3.306,9.188,4.671
		c0.599,0.26,1.35,0.393,2.098,0.396c0.748-0.002,1.499-0.136,2.098-0.396c3.146-1.365,6.025-3.359,9.188-4.671
		c4.124-1.71,7.14-0.625,10.034,2.811c1.714,2.035,3.651,3.881,5.451,5.844c0.442,0.482,0.816,0.971,1.093,1.471
		c1.092-1.951,0.378-3.624-1.093-5.227c-1.801-1.964-3.737-3.809-5.451-5.844c-2.894-3.436-5.91-4.521-10.034-2.811
		c-3.164,1.312-6.042,3.306-9.188,4.671c-0.599,0.26-1.35,0.394-2.098,0.396c-0.748-0.002-1.499-0.136-2.098-0.396
		c-3.146-1.365-6.025-3.359-9.188-4.671c-4.124-1.71-7.14-0.625-10.034,2.811c-1.714,2.035-3.651,3.881-5.451,5.844
		c-1.471,1.604-2.185,3.276-1.093,5.227c0.277-0.5,0.65-0.989,1.093-1.471C83.892,81.684,85.828,79.838,87.542,77.803z"/>
</g>
<g>
	<path class="st0" d="M195.516,142.77l0.123-0.319l14.309,5.525l-0.123,0.32L195.516,142.77z"/>
	<path class="st0" d="M188.391,157.261l0.178-0.293l13.145,7.903l-0.176,0.293L188.391,157.261z"/>
	<path class="st0" d="M178.885,170.292l0.225-0.259l11.582,10.056l-0.225,0.259L178.885,170.292z"/>
	<path class="st0" d="M167.24,181.494l0.268-0.215l9.652,11.92l-0.267,0.216L167.24,181.494z"/>
	<path class="st0" d="M153.857,190.479l0.301-0.166l7.441,13.412l-0.299,0.167L153.857,190.479z"/>
	<path class="st0" d="M139.089,197.048l0.323-0.112l5.042,14.485l-0.323,0.113L139.089,197.048z"/>
	<path class="st0" d="M123.443,200.979l0.338-0.056l2.46,15.141l-0.338,0.055L123.443,200.979z"/>
	<path class="st0" d="M107.333,202.128l0.343,0.005l-0.216,15.338l-0.343-0.005L107.333,202.128z"/>
	<path class="st0" d="M91.274,200.464l0.336,0.063l-2.867,15.068l-0.337-0.064L91.274,200.464z"/>
	<path class="st0" d="M75.737,196.048l0.321,0.121l-5.418,14.351l-0.321-0.122L75.737,196.048z"/>
	<path class="st0" d="M61.197,189.034l0.296,0.174l-7.805,13.206l-0.295-0.175L61.197,189.034z"/>
</g>
</svg>
