<?xml version="1.0" encoding="utf-8"?>
<!-- Generator: Adobe Illustrator 26.3.1, SVG Export Plug-In . SVG Version: 6.00 Build 0)  -->
<svg version="1.1" id="레이어_1" xmlns="http://www.w3.org/2000/svg" xmlns:xlink="http://www.w3.org/1999/xlink" x="0px"
	 y="0px" viewBox="0 0 18 18" style="enable-background:new 0 0 18 18;" xml:space="preserve">
<style type="text/css">
	.st0{fill:#FFFFFF;}
</style>
<path class="st0" d="M14.899,3.607c-1.116-0.514-2.295-0.878-3.507-1.083c-0.154,0.269-0.327,0.63-0.449,0.922
	c-1.288-0.192-2.598-0.192-3.887,0C6.919,3.13,6.765,2.822,6.596,2.523c-1.213,0.205-2.394,0.571-3.51,1.088
	c-2.213,3.299-2.814,6.521-2.514,9.692c1.299,0.965,2.755,1.7,4.303,2.171c0.348-0.472,0.657-0.972,0.922-1.495
	c-0.503-0.188-0.988-0.42-1.451-0.693c0.121-0.091,0.238-0.183,0.35-0.275c2.724,1.288,5.882,1.288,8.606,0
	c0.115,0.095,0.235,0.187,0.355,0.277c-0.463,0.275-0.95,0.508-1.454,0.696c0.265,0.522,0.573,1.022,0.922,1.492
	c1.549-0.47,3.005-1.205,4.303-2.171C17.779,9.628,16.823,6.436,14.899,3.607z M6.175,11.355c-0.839,0-1.528-0.768-1.528-1.712
	c0-0.944,0.673-1.718,1.528-1.718s1.537,0.768,1.529,1.714C7.696,10.584,7.029,11.355,6.175,11.355z M11.823,11.355
	c-0.839,0-1.528-0.768-1.528-1.712c0-0.944,0.673-1.718,1.528-1.718c0.854,0,1.537,0.768,1.528,1.714
	C13.341,10.584,12.677,11.355,11.823,11.355z"/>
</svg>
